<svg width="141" height="147" viewBox="0 0 141 147" fill="none" xmlns="http://www.w3.org/2000/svg">
<path d="M0 22.9688C0 15.3576 5.91824 9.1875 13.2188 9.1875H110.156C117.457 9.1875 123.375 15.3576 123.375 22.9688V119.694C123.375 122.443 122.932 125.708 121.281 128.625H127.781C130.215 128.625 132.188 126.568 132.188 124.031V41.3438C132.188 38.8067 134.16 36.75 136.594 36.75C139.027 36.75 141 38.8067 141 41.3438V124.031C141 131.642 135.082 137.812 127.781 137.812H13.1885C5.86828 137.812 0 131.622 0 124.031V22.9688ZM105.75 128.625C109.005 128.625 111.511 126.682 113.268 124.57C114.076 123.599 114.562 122.01 114.562 119.694V22.9688C114.562 20.4317 112.59 18.375 110.156 18.375H13.2188C10.7852 18.375 8.8125 20.4317 8.8125 22.9688V124.031C8.8125 126.589 10.7747 128.625 13.1885 128.625H105.75Z" fill="black"/>
<path d="M17.625 27.5625H105.75V45.9375H17.625V27.5625Z" fill="black"/>
<path d="M17.625 55.125H52.875V82.6875H17.625V55.125Z" fill="black"/>
<path d="M17.625 91.875H52.875V101.062H17.625V91.875Z" fill="black"/>
<path d="M17.625 110.25H52.875V119.438H17.625V110.25Z" fill="black"/>
<path d="M61.6875 55.125H79.3125V64.3125H61.6875V55.125Z" fill="black"/>
<path d="M88.125 55.125H105.75V64.3125H88.125V55.125Z" fill="black"/>
<path d="M61.6875 73.5H79.3125V82.6875H61.6875V73.5Z" fill="black"/>
<path d="M88.125 73.5H105.75V82.6875H88.125V73.5Z" fill="black"/>
<path d="M61.6875 91.875H79.3125V101.062H61.6875V91.875Z" fill="black"/>
<path d="M88.125 91.875H105.75V101.062H88.125V91.875Z" fill="black"/>
<path d="M61.6875 110.25H79.3125V119.438H61.6875V110.25Z" fill="black"/>
<path d="M88.125 110.25H105.75V119.438H88.125V110.25Z" fill="black"/>
</svg>
