<svg width="44" height="44" viewBox="0 0 44 44" fill="none" xmlns="http://www.w3.org/2000/svg">
<path fill-rule="evenodd" clip-rule="evenodd" d="M32.1429 11C32.6162 11 33 11.3918 33 11.875V20.275C33 22.6912 31.0812 24.65 28.7143 24.65H11.9265L17.6632 30.5063C17.998 30.848 17.998 31.402 17.6632 31.7437C17.3285 32.0854 16.7858 32.0854 16.4511 31.7437L9.25105 24.3937C8.91632 24.052 8.91632 23.498 9.25105 23.1563L16.1082 16.1563C16.4429 15.8146 16.9856 15.8146 17.3204 16.1563C17.6551 16.498 17.6551 17.052 17.3204 17.3937L11.9265 22.9H28.7143C30.1344 22.9 31.2857 21.7247 31.2857 20.275V11.875C31.2857 11.3918 31.6695 11 32.1429 11Z" fill="black"/>
</svg>
