<svg width="90" height="32" viewBox="0 0 90 32" fill="none" xmlns="http://www.w3.org/2000/svg">
<path d="M15.9082 0C24.6941 0 31.8163 7.16334 31.8163 16C31.8163 24.8367 24.6941 32 15.9082 32C7.12223 32 0 24.8367 0 16C0 7.16334 7.12223 0 15.9082 0Z" fill="#FF8000"/>
<path d="M15.9387 0.888243C8.59708 0.888243 2.64604 6.87501 2.64604 14.2604C2.64604 14.9806 2.70446 15.6871 2.81316 16.3765C4.53257 11.8594 9.22683 8.61665 14.7519 8.61665C19.3667 8.61665 23.402 10.8789 25.6092 14.2556C25.6228 14.2556 25.6357 14.2543 25.6493 14.2543C27.0772 14.2543 28.2783 14.71 29.173 15.491C29.2097 15.0858 29.2314 14.6758 29.2314 14.2604C29.2314 6.87501 23.2797 0.888243 15.9387 0.888243Z" fill="#FFCE00"/>
<path d="M29.173 15.491C28.2783 14.71 27.0772 14.2543 25.6493 14.2543C25.6357 14.2543 25.6228 14.2556 25.6092 14.2556C21.6975 14.2789 17.5827 17.6965 16.4054 21.9102C15.7777 24.1554 16.1106 26.1745 17.148 27.5752C16.7499 27.6114 16.347 27.6326 15.9394 27.6326C9.31379 27.6326 3.8213 22.7561 2.81316 16.3765C2.36004 17.5674 2.1114 18.8451 2.1114 20.1768C2.1114 23.4476 3.59916 26.3986 5.98637 28.5017C7.45986 29.6865 9.14667 30.613 10.9809 31.2136C12.5332 31.7219 14.1874 32 15.9082 32C20.6772 32 24.9536 29.8867 27.87 26.5428C28.8748 25.3908 29.7172 24.0926 30.3625 22.6837C30.4576 22.4288 30.5419 22.1706 30.6153 21.9095C31.3659 19.2202 30.7382 16.8561 29.173 15.491Z" fill="#FF0024"/>
<path d="M88.2507 20.3005C85.7758 20.3005 84.6366 19.0234 84.6366 16.5343V1.20664H77.0497V12.5871C75.3248 8.86262 71.5721 6.28262 67.2155 6.28262C62.8589 6.28262 59.1062 8.86262 57.3814 12.5871V6.51219H49.8923V17.2217C49.8923 19.1539 48.8828 20.4638 47.1899 20.4638C45.4969 20.4638 44.4874 19.1539 44.4874 17.2217V6.51219H36.8999V17.3201C36.8999 23.9354 40.9379 28.0951 47.1899 28.0951C52.2088 28.0951 55.7917 25.2931 56.9656 20.7562C58.4337 25.0287 62.4662 28.0951 67.2155 28.0951C71.9016 28.0951 75.8907 25.11 77.4063 20.9257C78.5239 25.7816 82.178 27.9318 87.0788 27.9318H89V20.3005H88.2507ZM67.2155 20.4644C65.4248 20.4644 63.9594 18.9906 63.9594 17.1896C63.9594 15.3885 65.4248 13.9147 67.2155 13.9147C69.0063 13.9147 70.4716 15.3885 70.4716 17.1896C70.4716 18.9906 69.0063 20.4644 67.2155 20.4644Z" fill="white"/>
</svg>
